<?xml version="1.0" encoding="utf-8"?>
<!-- Generator: Adobe Illustrator 28.1.0, SVG Export Plug-In . SVG Version: 6.00 Build 0)  -->
<svg version="1.1" id="Layer_1" xmlns="http://www.w3.org/2000/svg" xmlns:xlink="http://www.w3.org/1999/xlink" x="0px" y="0px"
	 viewBox="0 0 250 250" style="enable-background:new 0 0 250 250;" xml:space="preserve">
<style type="text/css">
	.st0{fill:#FFFFFF;}
	.st1{fill:#132C50;}
	.st2{fill:#FFFFFF;stroke:#FFFFFF;stroke-miterlimit:10;}
	.st3{fill:none;stroke:#FFFFFF;stroke-miterlimit:10;}
	.st4{fill-rule:evenodd;clip-rule:evenodd;fill:#EC1C24;}
	.st5{fill-rule:evenodd;clip-rule:evenodd;fill:#0655A3;}
	.st6{fill-rule:evenodd;clip-rule:evenodd;fill:#FFDD00;}
	.st7{fill:#FFDD00;}
</style>
<g>
	<g>
		<g>
			<path class="st0" d="M189.8,100.1v8.4H59.9v-8.4H189.8 M190.5,99.4h-0.7H59.9h-0.7v0.7v8.4v0.7h0.7h129.9h0.7v-0.7v-8.4V99.4
				L190.5,99.4z"/>
			<path class="st1" d="M59.2,113v29.7h0.7v-29h129.9v29h0.7V113H59.2z M189.8,146.3V162H59.9v-15.7h-0.7v16.4h131.3v-16.4H189.8z"
				/>
			<g>
				<path class="st0" d="M193.9,95.7H55.8c-5.3,0-6.4-3.2-6.6-5l0-1.8h151.3v1.7C200.3,92.5,199.2,95.7,193.9,95.7z M49.9,89.6v1
					c0.2,2,1.4,4.4,5.9,4.4h138.1c4.5,0,5.7-2.4,5.9-4.4l0-1H49.9z"/>
			</g>
			<g>
				<path class="st1" d="M85,95.2c-2.3,0.1-4.7,0.1-7.3,0.1H85L85,95.2z"/>
			</g>
			<g>
				<rect x="168.8" y="100" class="st0" width="17.4" height="6.3"/>
				<rect x="147.7" y="100" class="st0" width="17.4" height="6.3"/>
				<rect x="126.7" y="100" class="st0" width="17.4" height="6.3"/>
				<rect x="105.7" y="100" class="st0" width="17.4" height="6.3"/>
				<rect x="84.6" y="100" class="st0" width="17.4" height="6.3"/>
				<rect x="63.6" y="100" class="st0" width="17.4" height="6.3"/>
			</g>
			<g>
				<g>
					<path class="st0" d="M138.6,67.1l-5.7-3.3c0,0-1.1-0.7-3.4-0.7H125c0,0.9-0.2,2.4-1.4,3.4c4.7,0.1,10.2,0.4,16.1,1.3
						L138.6,67.1z"/>
					<path class="st0" d="M120.7,66.9c-7.8,0.3-12.8,1.2-12.8,1.2c4.8-0.5,10.1-0.7,15.1-0.7c0.2,2-0.9,8.4-24,10.4
						c-17.3,1.5-25.6,2.7-29.4,3.5c-0.7,0.4-1.4,0.8-2,1.2v0.1c17.6-3,37-4.7,57.4-4.7c20.4,0,39.8,1.7,57.4,4.7v-0.1
						c-12.5-7.4-26.1-12.2-40.4-14.4c0,0,0,0,0,0c0,0-0.1,0-0.1,0c0,0-0.1,0-0.1,0l0,0l-0.8-0.1c-0.1,0-0.2,0-0.3,0l0,0l-0.6-0.1
						C136.5,67.6,128.9,67,120.7,66.9z"/>
					<path class="st0" d="M183.7,81.5c-13.3-8-27.9-13.1-43.3-15.2l-6.8-4c-0.1,0-1.4-0.9-4.2-0.9h-9.1c-2.8,0-4.2,0.9-4.2,0.9
						l-6.8,4c-15.4,2.1-29.9,7.2-43.3,15.2l-0.2,0.1v2.1l0.2,0.1c5.4,2.1,11.1,3.9,17,5.4h83.5c5.9-1.5,11.6-3.3,17-5.4l0.2-0.1
						v-2.1L183.7,81.5z M183.2,83.2c-0.2,0.1-0.4,0.1-0.6,0.2c-17.7-3.1-37.2-4.8-57.7-4.8c-16.5,0-32.3,1.1-47.1,3.1
						c-0.2,0.1-3.6,2.6,4.6,6.5c-5.4-1.4-10.7-3.1-15.7-5V82c13.2-7.9,27.6-13,42.9-15l0.1,0l0,0l6.9-4c0,0,1.2-0.8,3.8-0.8h9.1
						c2.6,0,3.8,0.8,3.9,0.8l6.9,4l0.1,0l0.1,0c15.3,2.1,29.7,7.1,42.9,15V83.2z"/>
				</g>
				<path class="st0" d="M183.7,81.7l-0.5-0.1c0,0-19.4-10-42-13.6c-22.6-3.5-17.6,9.9-17.6,9.9s28.7-0.3,59.1,5.6
					c0.3,0.1,0.5,0.1,0.8,0.2L183.7,81.7z"/>
			</g>
			<g>
				<g>
					<path class="st0" d="M195.8,167.1H54V162h141.8V167.1z M54.7,166.4h140.3v-3.7H54.7V166.4z"/>
				</g>
				<polygon class="st0" points="195.1,166.4 54.7,162.7 195.1,162.7 				"/>
			</g>
			<g>
				<g>
					<path class="st2" d="M195.8,113.7H54v-5.1h141.8V113.7z M54.7,112.9h140.3v-3.7H54.7V112.9z"/>
				</g>
				<path class="st0" d="M54.7,109.3c0,0,135.5,0.3,140.3,3.7h0.5V109h-4.3H54.7V109.3z"/>
			</g>
			<g>
				<path class="st0" d="M193.4,99.4l0.6-3.7l-1.5-0.4l-77.1,0.3C146.8,95.7,189,96.3,193.4,99.4z"/>
				<g>
					<path class="st0" d="M194.2,100.1H55.6V95h138.6V100.1z M56.3,99.4h137.1v-3.7H56.3V99.4z"/>
				</g>
			</g>
			<g>
				<rect x="74" y="113.6" class="st3" width="3.6" height="29.1"/>
				<rect x="74" y="146.3" class="st3" width="3.6" height="15.7"/>
				<path class="st2" d="M77.6,146.3V162H74v-15.7h-0.7v16.4h5v-16.4H77.6z M73.3,112.9v29.8H74v-29.1h3.6v29.1h0.7v-29.8H73.3z"/>
			</g>
			<g>
				<rect x="59.9" y="113.6" class="st3" width="3.6" height="29.1"/>
				<rect x="59.9" y="146.3" class="st3" width="3.6" height="15.7"/>
				<path class="st2" d="M63.6,146.3V162h-3.6v-15.7h-0.7v16.4h5v-16.4H63.6z M59.2,112.9v29.8h0.7v-29.1h3.6v29.1h0.7v-29.8H59.2z"
					/>
			</g>
			<g>
				<rect x="88" y="113.6" class="st3" width="3.6" height="29.1"/>
				<rect x="88" y="146.3" class="st3" width="3.6" height="15.7"/>
				<path class="st2" d="M87.3,112.9v29.8H88v-29.1h3.6v29.1h0.7v-29.8H87.3z M91.6,146.3V162H88v-15.7h-0.7v16.4h5v-16.4H91.6z"/>
			</g>
			<g>
				<rect x="102" y="113.6" class="st3" width="3.6" height="29.1"/>
				<rect x="102" y="146.3" class="st3" width="3.6" height="15.7"/>
				<path class="st2" d="M105.6,146.3V162H102v-15.7h-0.7v16.4h5v-16.4H105.6z M101.3,112.9v29.8h0.7v-29.1h3.6v29.1h0.7v-29.8
					H101.3z"/>
			</g>
			<g>
				<rect x="116.1" y="113.6" class="st3" width="3.6" height="29.1"/>
				<rect x="116.1" y="146.3" class="st3" width="3.6" height="15.7"/>
				<path class="st2" d="M115.4,112.9v29.8h0.7v-29.1h3.6v29.1h0.7v-29.8H115.4z M119.7,146.3V162h-3.6v-15.7h-0.7v16.4h5v-16.4
					H119.7z"/>
			</g>
			<g>
				<rect x="130.1" y="113.6" class="st3" width="3.6" height="29.1"/>
				<rect x="130.1" y="146.3" class="st3" width="3.6" height="15.7"/>
				<path class="st2" d="M133.7,146.3V162h-3.6v-15.7h-0.7v16.4h5v-16.4H133.7z M129.4,112.9v29.8h0.7v-29.1h3.6v29.1h0.7v-29.8
					H129.4z"/>
			</g>
			<g>
				<rect x="144.1" y="113.6" class="st3" width="3.6" height="29.1"/>
				<rect x="144.1" y="146.3" class="st3" width="3.6" height="15.7"/>
				<path class="st2" d="M143.4,112.9v29.8h0.7v-29.1h3.6v29.1h0.7v-29.8H143.4z M147.7,146.3V162h-3.6v-15.7h-0.7v16.4h5v-16.4
					H147.7z"/>
			</g>
			<g>
				<rect x="158.1" y="113.6" class="st3" width="3.6" height="29.1"/>
				<rect x="158.1" y="146.3" class="st3" width="3.6" height="15.7"/>
				<path class="st2" d="M161.8,146.3V162h-3.6v-15.7h-0.7v16.4h5v-16.4H161.8z M157.5,112.9v29.8h0.7v-29.1h3.6v29.1h0.7v-29.8
					H157.5z"/>
			</g>
			<g>
				<rect x="172.2" y="113.6" class="st3" width="3.6" height="29.1"/>
				<rect x="172.2" y="146.3" class="st3" width="3.6" height="15.7"/>
				<path class="st2" d="M175.8,146.3V162h-3.6v-15.7h-0.7v16.4h5v-16.4H175.8z M171.5,113v29.7h0.7v-29.1h3.6v29.1h0.7V113H171.5z"
					/>
			</g>
			<g>
				<rect x="186.2" y="113.6" class="st3" width="3.6" height="29.1"/>
				<rect x="186.2" y="146.3" class="st3" width="3.6" height="15.7"/>
				<path class="st2" d="M189.8,146.3V162h-3.6v-15.7h-0.7v16.4h5v-16.4H189.8z M185.5,112.9v29.8h0.7v-29.1h3.6v29.1h0.7v-29.8
					H185.5z"/>
			</g>
			<g>
				<path class="st2" d="M59.9,146.3v0.7h3.6v-0.7H59.9z M59.9,142v0.7h3.6V142H59.9z M88,146.3v0.7h3.6v-0.7H88z M88,142v0.7h3.6
					V142H88z M74,146.3v0.7h3.6v-0.7H74z M74,142v0.7h3.6V142H74z M59.9,146.3v0.7h3.6v-0.7H59.9z M59.9,142v0.7h3.6V142H59.9z
					 M116.1,146.3v0.7h3.6v-0.7H116.1z M116.1,142v0.7h3.6V142H116.1z M102,146.3v0.7h3.6v-0.7H102z M102,142v0.7h3.6V142H102z
					 M88,146.3v0.7h3.6v-0.7H88z M88,142v0.7h3.6V142H88z M74,146.3v0.7h3.6v-0.7H74z M74,142v0.7h3.6V142H74z M59.9,146.3v0.7h3.6
					v-0.7H59.9z M59.9,142v0.7h3.6V142H59.9z M144.1,146.3v0.7h3.6v-0.7H144.1z M144.1,142v0.7h3.6V142H144.1z M130.1,146.3v0.7h3.6
					v-0.7H130.1z M130.1,142v0.7h3.6V142H130.1z M116.1,146.3v0.7h3.6v-0.7H116.1z M116.1,142v0.7h3.6V142H116.1z M102,146.3v0.7
					h3.6v-0.7H102z M102,142v0.7h3.6V142H102z M88,146.3v0.7h3.6v-0.7H88z M88,142v0.7h3.6V142H88z M74,146.3v0.7h3.6v-0.7H74z
					 M74,142v0.7h3.6V142H74z M59.9,146.3v0.7h3.6v-0.7H59.9z M59.9,142v0.7h3.6V142H59.9z M186.2,142v0.7h3.6V142H186.2z
					 M59.9,146.3v0.7h129.9v-0.7H59.9z M175.8,142h-3.6v0.7h3.6V142z M161.8,142h-3.6v0.7h3.6V142z M147.7,142h-3.6v0.7h3.6V142z
					 M133.7,142h-3.6v0.7h3.6V142z M119.7,142h-3.6v0.7h3.6V142z M105.6,142H102v0.7h3.6V142z M91.6,142H88v0.7h3.6V142z M77.6,142
					H74v0.7h3.6V142z M63.6,142h-3.6v0.7h3.6V142z M55.6,142v5h138.5v-5H55.6z M193.4,146.3H56.3v-3.6h137.1V146.3z M59.9,142v0.7
					h3.6V142H59.9z M59.9,146.3v0.7h3.6v-0.7H59.9z M74,142v0.7h3.6V142H74z M74,146.3v0.7h3.6v-0.7H74z M88,142v0.7h3.6V142H88z
					 M88,146.3v0.7h3.6v-0.7H88z M102,142v0.7h3.6V142H102z M102,146.3v0.7h3.6v-0.7H102z M116.1,142v0.7h3.6V142H116.1z
					 M116.1,146.3v0.7h3.6v-0.7H116.1z M130.1,142v0.7h3.6V142H130.1z M130.1,146.3v0.7h3.6v-0.7H130.1z M144.1,142v0.7h3.6V142
					H144.1z M144.1,146.3v0.7h3.6v-0.7H144.1z M158.1,142v0.7h3.6V142H158.1z M158.1,146.3v0.7h3.6v-0.7H158.1z M172.2,142v0.7h3.6
					V142H172.2z M172.2,146.3v0.7h3.6v-0.7H172.2z M186.2,142v0.7h3.6V142H186.2z M59.9,142v0.7h3.6V142H59.9z M59.9,146.3v0.7h3.6
					v-0.7H59.9z M74,142v0.7h3.6V142H74z M74,146.3v0.7h3.6v-0.7H74z M88,142v0.7h3.6V142H88z M88,146.3v0.7h3.6v-0.7H88z M102,142
					v0.7h3.6V142H102z M102,146.3v0.7h3.6v-0.7H102z M116.1,142v0.7h3.6V142H116.1z M116.1,146.3v0.7h3.6v-0.7H116.1z M130.1,146.3
					v0.7h3.6v-0.7H130.1z M59.9,142v0.7h3.6V142H59.9z M59.9,146.3v0.7h3.6v-0.7H59.9z M74,142v0.7h3.6V142H74z M74,146.3v0.7h3.6
					v-0.7H74z M88,142v0.7h3.6V142H88z M88,146.3v0.7h3.6v-0.7H88z M102,142v0.7h3.6V142H102z M102,146.3v0.7h3.6v-0.7H102z
					 M59.9,142v0.7h3.6V142H59.9z M59.9,146.3v0.7h3.6v-0.7H59.9z M74,142v0.7h3.6V142H74z M74,146.3v0.7h3.6v-0.7H74z M59.9,142
					v0.7h3.6V142H59.9z M59.9,146.3v0.7h3.6v-0.7H59.9z"/>
			</g>
		</g>
		<g>
			<path class="st0" d="M108,180.2v16.1h-4.8V185c-1.1,1-2.3,1.7-3.7,1.9l-0.4-4.1c1.9-0.2,4.2-1.5,4.9-2.6H108z"/>
			<path class="st0" d="M123.7,184.7c0,1.7-1,2.9-2.7,3.5v0c2,0.6,3.1,1.9,3.1,3.9c0,2.8-2.5,4.5-6.8,4.5c-4.3,0-6.8-1.7-6.8-4.5
				c0-2,1.1-3.3,3.1-3.9v0c-1.7-0.6-2.7-1.9-2.7-3.5c0-2.9,2.4-4.6,6.4-4.6C121.3,180.1,123.7,181.8,123.7,184.7z M119.3,191.4
				c0-1.1-0.7-1.7-2-1.7c-1.2,0-2,0.6-2,1.7s0.7,1.7,2,1.7C118.6,193.1,119.3,192.5,119.3,191.4z M115.5,185.1c0,1,0.7,1.6,1.8,1.6
				c1.1,0,1.8-0.6,1.8-1.6c0-1-0.7-1.6-1.8-1.6C116.2,183.5,115.5,184.1,115.5,185.1z"/>
			<path class="st0" d="M134.5,180.2v16.1h-4.8V185c-1.1,1-2.3,1.7-3.7,1.9l-0.4-4.1c1.9-0.2,4.2-1.5,4.9-2.6H134.5z"/>
			<path class="st0" d="M150.1,184.7c0,1.7-1,2.9-2.7,3.5v0c2,0.6,3.1,1.9,3.1,3.9c0,2.8-2.5,4.5-6.8,4.5c-4.3,0-6.8-1.7-6.8-4.5
				c0-2,1.1-3.3,3.1-3.9v0c-1.7-0.6-2.7-1.9-2.7-3.5c0-2.9,2.4-4.6,6.4-4.6C147.7,180.1,150.1,181.8,150.1,184.7z M145.8,191.4
				c0-1.1-0.7-1.7-2-1.7c-1.2,0-2,0.6-2,1.7s0.7,1.7,2,1.7C145,193.1,145.8,192.5,145.8,191.4z M142,185.1c0,1,0.7,1.6,1.8,1.6
				c1.1,0,1.8-0.6,1.8-1.6c0-1-0.7-1.6-1.8-1.6C142.7,183.5,142,184.1,142,185.1z"/>
		</g>
		<g>
			<path class="st4" d="M187.2,192.4c-16.4,15.1-38.2,24.3-62.2,24.3c-24.1,0-46-9.3-62.4-24.5L38.3,215c22.5,21.7,53.1,35,86.7,35
				c33.6,0,64-13.2,86.5-34.8L187.2,192.4z"/>
			<path class="st5" d="M125,0C87.2,0,53.4,16.8,30.4,43.3l24.3,22.8c16.8-20,42-32.8,70.3-32.8c28.1,0,53.2,12.6,70.1,32.5
				L219.4,43C196.4,16.7,162.7,0,125,0z"/>
			<path class="st6" d="M62.6,192.2L38.3,215c-0.4-0.4-0.8-0.7-1.1-1.1C14.2,191.3,0,159.8,0,125c0-30.7,11.1-58.8,29.4-80.6
				c0.3-0.4,0.7-0.8,1-1.2l24.3,22.8c-0.3,0.4-0.7,0.8-1,1.2C40.9,83,33.3,103.1,33.3,125c0,26,10.8,49.4,28.2,66.2
				C61.8,191.5,62.2,191.9,62.6,192.2z"/>
			<g>
				<path class="st0" d="M51.2,35.1c1-0.8,2-1.4,2.9-1.6c1-0.3,1.9-0.2,2.7,0c0.9,0.3,1.6,0.9,2.4,1.7s1.1,1.7,1.3,2.6
					c0.1,0.9,0,1.8-0.4,2.7c-0.4,0.9-1.1,1.7-2.1,2.6l-2.4,2l3.3,4l-3.1,2.6l-10-12L51.2,35.1z M55.5,41.1c0.7-0.5,1-1.1,1.1-1.6
					c0.1-0.6-0.1-1.1-0.5-1.7c-0.5-0.6-1-0.8-1.5-0.8c-0.6,0-1.2,0.3-1.8,0.8l-1.9,1.6l2.8,3.3L55.5,41.1z"/>
				<path class="st0" d="M65.4,24.8c1.4-0.8,2.7-1.2,4-1.3c1.3,0,2.5,0.3,3.7,1c1.1,0.7,2.1,1.8,3,3.3c0.9,1.5,1.3,2.9,1.4,4.2
					c0.1,1.3-0.2,2.6-0.9,3.7c-0.7,1.1-1.7,2.1-3,2.9s-2.7,1.2-4,1.3s-2.5-0.3-3.7-1c-1.1-0.7-2.1-1.8-3-3.3
					c-0.9-1.5-1.3-2.9-1.4-4.2c-0.1-1.3,0.2-2.6,0.9-3.7C63.1,26.6,64.1,25.6,65.4,24.8z M67.1,27.5c-0.7,0.4-1.1,0.9-1.4,1.5
					c-0.3,0.6-0.3,1.2-0.2,2s0.5,1.6,1,2.5c0.5,0.9,1.1,1.6,1.7,2.1s1.2,0.8,1.9,0.8c0.6,0,1.3-0.1,1.9-0.5c0.7-0.4,1.1-0.9,1.4-1.4
					c0.3-0.6,0.3-1.2,0.2-2c-0.1-0.8-0.5-1.6-1-2.5c-0.5-0.9-1.1-1.6-1.7-2.1c-0.6-0.5-1.2-0.7-1.8-0.8C68.4,27,67.7,27.2,67.1,27.5
					z"/>
				<path class="st0" d="M84.8,29.2l7.3-2.9l1.2,2.9l-11,4.5l-5.9-14.5l3.8-1.5L84.8,29.2z"/>
				<path class="st0" d="M94.7,12.7l4.3,15l-3.9,1.1l-4.3-15L94.7,12.7z"/>
				<path class="st0" d="M112.3,9.2l0.5,3.1l-5,0.9l2.1,12.3l-4,0.7l-2.1-12.3l-5,0.9l-0.5-3.1L112.3,9.2z"/>
				<path class="st0" d="M116.7,24.5l-0.4-15.6l12.2-0.3l0.1,3.1l-8.1,0.2l0.1,3.2l6.4-0.2l0.1,3l-6.4,0.2l0.1,3.2l8.4-0.2l0.1,3.1
					L116.7,24.5z"/>
				<path class="st0" d="M137.1,9.3l-2,15.5l-4-0.5l2-15.5L137.1,9.3z M144.4,16.5l-0.4,3.1l-10.2-1.3l0.4-3.1L144.4,16.5z
					 M147.1,10.6l-2,15.5l-4-0.5l2-15.5L147.1,10.6z"/>
				<path class="st0" d="M165.8,15.8l-4.6,15l-4.3-1.3l-2.2-9.5l-0.5-2.6l0,0l-0.8,2.8l-2.3,7.5l-3.4-1.1l4.6-14.9l4.3,1.3l2.2,9.5
					l0.5,2.6l0,0l0.8-2.8l2.3-7.5L165.8,15.8z"/>
				<path class="st0" d="M174,19.5l-6.3,14.3l-3.7-1.7l6.3-14.3L174,19.5z"/>
				<path class="st0" d="M184.7,38.1c-0.8,0.8-1.7,1.3-2.6,1.6c-0.9,0.3-1.9,0.3-2.8,0.1c-1-0.2-1.9-0.6-2.9-1.1
					c-1.4-0.8-2.4-1.8-3-2.9c-0.7-1.1-1-2.4-0.9-3.7c0.1-1.3,0.5-2.7,1.4-4.2s1.9-2.5,3-3.3c1.1-0.7,2.4-1.1,3.7-1s2.7,0.4,4,1.2
					c0.9,0.6,1.7,1.2,2.4,1.9c0.6,0.7,1.1,1.5,1.3,2.4s0.2,1.8-0.1,2.8l-3.8-0.6c0.3-1,0.3-1.7,0.1-2.3c-0.2-0.6-0.7-1-1.3-1.4
					c-0.6-0.4-1.3-0.5-1.9-0.5c-0.7,0-1.3,0.3-1.9,0.8c-0.6,0.5-1.2,1.2-1.7,2.1c-0.5,0.9-0.9,1.8-1,2.5c-0.1,0.8-0.1,1.4,0.2,2
					c0.3,0.6,0.8,1.1,1.5,1.5c0.7,0.4,1.3,0.5,2,0.4c0.7-0.1,1.3-0.5,1.9-1.1L184.7,38.1z"/>
				<path class="st0" d="M194.8,52l-3.2-2.7l1.4-3.4l-4.1-3.4l-3.1,2l-3.2-2.6l14.1-8.6l3.8,3.1L194.8,52z M191.1,40.9l3,2.4
					l2.5-6.1L191.1,40.9z"/>
			</g>
			<g>
				<path class="st0" d="M56.1,219.6l8.4-13.2l6.5,4.1c1.6,1.1,2.7,2.1,3,3.2c0.4,1.1,0.2,2.2-0.5,3.4c-0.5,0.7-1.1,1.2-1.9,1.5
					c-0.8,0.3-1.7,0.2-2.7-0.3l0,0c0.9,0.8,1.5,1.6,1.6,2.5c0.1,0.9,0,1.7-0.5,2.5c-0.7,1.1-1.7,1.8-2.9,1.9
					c-1.2,0.1-2.6-0.4-4.2-1.4L56.1,219.6z M61,219.3l2.8,1.8c0.6,0.4,1.2,0.6,1.7,0.5c0.5-0.1,0.9-0.3,1.2-0.8
					c0.3-0.5,0.4-0.9,0.2-1.4c-0.2-0.4-0.5-0.9-1.2-1.3l-2.8-1.8L61,219.3z M64.4,213.9l2.5,1.6c1.2,0.8,2.2,0.7,2.8-0.3
					c0.6-1,0.3-1.8-0.9-2.6l-2.5-1.6L64.4,213.9z"/>
				<path class="st0" d="M90.4,220.1l-3.7,8.5c-0.9,2-2.1,3.3-3.6,3.8c-1.5,0.5-3.4,0.3-5.5-0.6c-2.1-0.9-3.5-2.1-4.2-3.6
					s-0.5-3.2,0.3-5.3l3.7-8.5l3.8,1.7l-3.7,8.6c-0.4,1-0.6,1.9-0.3,2.6c0.2,0.7,0.8,1.2,1.7,1.6c0.9,0.4,1.7,0.4,2.4,0.1
					c0.7-0.3,1.2-1,1.7-2l3.7-8.6L90.4,220.1z"/>
				<path class="st0" d="M103.4,235.2c-0.6,1-1.3,1.7-2.1,2.2c-0.8,0.5-1.7,0.8-2.7,0.9c-1,0.1-2,0-3.1-0.3c-1.5-0.4-2.8-1.1-3.8-2
					c-1-0.9-1.6-2-1.9-3.3c-0.3-1.3-0.2-2.8,0.2-4.4c0.4-1.6,1.1-3,2-4s2-1.7,3.3-2s2.7-0.3,4.2,0.1c1.1,0.3,2,0.7,2.8,1.2
					c0.8,0.5,1.5,1.2,1.9,2c0.5,0.8,0.7,1.7,0.7,2.7l-3.9,0.5c0-1-0.2-1.7-0.5-2.2s-1-0.8-1.7-1c-0.7-0.2-1.4-0.2-2,0
					c-0.6,0.2-1.2,0.6-1.6,1.2c-0.5,0.6-0.8,1.5-1.1,2.5c-0.3,1-0.4,1.9-0.3,2.7c0.1,0.8,0.3,1.4,0.8,1.9c0.4,0.5,1.1,0.8,1.8,1
					c0.7,0.2,1.4,0.2,2-0.1c0.6-0.3,1.1-0.8,1.5-1.6L103.4,235.2z"/>
				<path class="st0" d="M121.4,226l-0.9,9.2c-0.2,2.2-1,3.8-2.3,4.8c-1.3,1-3.1,1.3-5.4,1.1c-2.3-0.2-4-1-5.1-2.2
					c-1.1-1.2-1.5-2.9-1.3-5.1l0.9-9.2l4.1,0.4l-0.9,9.3c-0.1,1.1,0,2,0.5,2.6c0.4,0.6,1.1,0.9,2.1,1c1,0.1,1.7-0.1,2.3-0.6
					s0.9-1.3,1-2.4l0.9-9.3L121.4,226z"/>
				<path class="st0" d="M131.2,225.6c1.9-0.1,3.4,0.3,4.5,1.1c1.1,0.8,1.7,2,1.7,3.4c0.1,1.6-0.4,2.8-1.4,3.7
					c-1,0.9-2.4,1.4-4.3,1.5l-0.4,0.2l-3.1,0.2l0.3,5.7l-4,0.2l-0.8-15.6L131.2,225.6z M131,232.7c0.8,0,1.4-0.2,1.8-0.6
					c0.4-0.3,0.6-0.8,0.5-1.5c0-0.7-0.3-1.2-0.7-1.5s-1-0.4-1.8-0.4l-2.9,0.1l0.2,4L131,232.7z M133.5,233.4l5.4,7.5l-4.5,0.2
					l-4.4-6.6L133.5,233.4z"/>
				<path class="st0" d="M142.4,240.3l-3-15.3l12.1-2.4l0.6,3.1l-8,1.6l0.6,3.1l6.4-1.3l0.6,2.9l-6.4,1.3l0.6,3.1l8.3-1.6l0.6,3.1
					L142.4,240.3z"/>
				<path class="st0" d="M159.2,219.7c1.4-0.5,2.7-0.7,3.9-0.6c1.2,0.1,2.4,0.4,3.4,0.9l-1,3.1c-0.9-0.4-1.8-0.7-2.6-0.8
					c-0.9-0.1-1.8,0.1-2.7,0.4c-0.6,0.2-1,0.4-1.3,0.7c-0.3,0.2-0.5,0.5-0.6,0.8c-0.1,0.3-0.1,0.5,0,0.8c0.1,0.3,0.3,0.5,0.7,0.6
					s0.9,0.1,1.6,0l2.7-0.3c1.6-0.2,2.9-0.1,3.8,0.4c0.9,0.4,1.6,1.2,2,2.3c0.4,1,0.4,2,0.1,2.9s-0.8,1.7-1.7,2.4
					c-0.8,0.7-1.8,1.3-3.1,1.7c-1,0.3-2,0.6-3,0.7c-1,0.1-1.9,0.1-2.8-0.1c-0.9-0.2-1.6-0.4-2.3-0.7l1-3.2c0.5,0.3,1.1,0.5,1.8,0.7
					s1.4,0.2,2.1,0.2c0.7,0,1.4-0.2,2.1-0.4c0.5-0.2,0.9-0.4,1.3-0.6c0.3-0.2,0.5-0.5,0.6-0.7c0.1-0.3,0.1-0.5,0-0.8
					c-0.1-0.3-0.3-0.5-0.6-0.7s-0.8-0.2-1.5-0.1l-3,0.4c-0.9,0.1-1.8,0.1-2.5,0c-0.8-0.1-1.4-0.3-2-0.8c-0.6-0.4-1-1-1.3-1.8
					c-0.3-0.9-0.4-1.8-0.1-2.7s0.8-1.7,1.6-2.5C156.7,220.8,157.8,220.2,159.2,219.7z M166.7,235.4l-0.2,4.6l-2.5,0.9l-0.7-4.3
					L166.7,235.4z"/>
				<path class="st0" d="M178.7,211l1.5,2.8l-4.6,2.4l5.7,11.1l-3.7,1.9L172,218l-4.6,2.4l-1.5-2.8L178.7,211z"/>
				<path class="st0" d="M183.5,207.6l8.7,13l-3.4,2.3l-8.7-13L183.5,207.6z"/>
			</g>
			<path class="st7" d="M250,125c0,34.9-14.3,66.5-37.4,89.1c-0.4,0.4-0.7,0.7-1.1,1.1l-24.3-22.8c0.4-0.3,0.8-0.7,1.1-1.1
				c17.5-16.7,28.4-40.3,28.4-66.4c0-22-7.7-42.2-20.7-58c-0.3-0.4-0.7-0.8-1-1.2L219.4,43c0.3,0.4,0.7,0.8,1,1.2
				C238.9,66,250,94.2,250,125z"/>
		</g>
	</g>
</g>
</svg>
