<?xml version="1.0" encoding="utf-8"?>
<!-- Generator: Adobe Illustrator 25.0.0, SVG Export Plug-In . SVG Version: 6.00 Build 0)  -->
<svg version="1.1" id="ENERGY_FEST" xmlns="http://www.w3.org/2000/svg" xmlns:xlink="http://www.w3.org/1999/xlink" x="0px"
	 y="0px" viewBox="0 0 841.9 595.3" style="enable-background:new 0 0 841.9 595.3;" xml:space="preserve">
<style type="text/css">
	.st0{fill:#FFB86C;}
	.st1{fill:none;}
	.st2{fill:#FFFFFF;}
	.st3{fill-rule:evenodd;clip-rule:evenodd;fill:#FFFFFF;}
	.st4{fill:none;stroke:#FCB76C;stroke-width:1.7691;stroke-miterlimit:10;}
	.st5{fill-rule:evenodd;clip-rule:evenodd;fill:#FFB86C;}
</style>
<g id="PRIZĂ">
</g>
<path class="st0" d="M512.8,420.6c-2.7,0-4.1,1.4-4.1,2.8c0,1.1,1.4,2.8,4.1,2.8h23.1v-5.5L512.8,420.6L512.8,420.6z"/>
<path class="st0" d="M512.8,448.2c-2.7,0-4.1,1.4-4.1,2.8c0,1.1,1.4,2.8,4.1,2.8h23.1v-5.5L512.8,448.2L512.8,448.2z"/>
<path class="st1" d="M538,459.9"/>
<path class="st2" d="M548.5,462c1.5,0,2.7-1.2,2.7-2.8v-45.5c0-1.5-1.2-2.8-2.7-2.8s-2.7,1.2-2.7,2.8v45.5
	C545.7,460.8,547,462,548.5,462z"/>
<path class="st2" d="M584.9,430.3c-0.4-0.4-1.3-1.2-2.7-1.4c-0.5-0.1-1,0-1.4,0c-0.5-1.4-1.2-3.4-2.7-5.5c-2.8-4-6.3-6-8.2-6.9
	c-3.7-1.9-7.2-2.6-9.5-2.8h-12.2v45.5c3.6,0,7.2,0,10.9,0c0.9,0,1,0,1.4,0c5.9-0.1,10-2.3,10.9-2.8c1.2-0.6,3.3-1.8,5.4-4.1
	c1.7-1.9,3.8-3.9,4.1-6.9c0.4,0.1,0.8,0.1,1.4,0c1.9-0.4,2.7-2.5,2.7-2.8C584.9,438.5,584.9,434.4,584.9,430.3L584.9,430.3z"/>
<path class="st2" d="M586.6,445.5h2c0.2,0,0.4-0.2,0.4-0.4v-15.8c0-0.2-0.2-0.4-0.4-0.4h-2c-0.2,0-0.4,0.2-0.4,0.4v15.8
	C586.2,445.3,586.4,445.5,586.6,445.5z"/>
<path class="st2" d="M636.7,442.6c-1,2-5.7,7.1-10.7,7h-17.3c-0.5,0-1,0-1.3,0h-15.8v-24.6h15.8c0.9,0,2.3-0.1,3.9,0h27.6h1.3
	L636.7,442.6z"/>
<g>
	<path class="st2" d="M598.4,157L288,158.3l1.5-2c0.5-0.6,49.5-64.3,153.4-64.7s153.5,62.7,154,63.4L598.4,157z M293.1,155.9
		l300.2-1.3c-9.3-10.6-58.2-60.9-150.4-60.5C350.7,94.5,302.3,145.1,293.1,155.9"/>
	<path class="st2" d="M638.5,173l-397.6,1.7l-0.1-18.6l397.6-1.7L638.5,173z M243.3,172.3l392.8-1.7l-0.1-13.8l-392.8,1.7
		L243.3,172.3z"/>
	<path class="st2" d="M633,183.8l-384,1.7l-0.1-13.2l384-1.7L633,183.8z M251.4,183l379.2-1.6l0-8.4l-379.2,1.6L251.4,183z"/>
	<path class="st2" d="M626.2,210.5l-363.1,1.6L263,183l363.1-1.6L626.2,210.5z M265.6,209.6l358.2-1.6l-0.1-24.2l-358.2,1.6
		L265.6,209.6z"/>
	<path class="st2" d="M635.5,220.1l-393.2,1.7l-0.1-12l393.2-1.7L635.5,220.1z M244.7,219.3l388.3-1.7l0-7.1l-388.3,1.7L244.7,219.3
		z"/>
	<polygon class="st2" points="505.2,157.3 504.5,155 553.1,141.2 553.7,143.6 	"/>
	<path class="st2" d="M552.5,143.2c-0.4-0.4-38-37.3-109.6-49.1c-71.5,12.4-108.8,49.7-109.2,50.1l-1.7-1.7
		c0.4-0.4,38.3-38.3,110.7-50.8l0.2,0l0.2,0c72.5,11.9,110.8,49.5,111.2,49.9L552.5,143.2z"/>
	<polygon class="st2" points="381.2,157.9 332.5,144.5 333.2,142.1 381.8,155.5 	"/>
	<polygon class="st2" points="470.4,157.4 469.3,155.2 511.4,134 512.5,136.2 	"/>
	<path class="st2" d="M510.8,135.6c-0.1-0.2-9.5-20.3-67.9-41.4c-58.2,21.7-67.4,41.8-67.5,42l-2.2-0.9c0.4-0.9,9.5-21.3,69.4-43.5
		l0.4-0.2l0.4,0.2c60,21.7,69.4,42.1,69.7,42.9L510.8,135.6l1.1-0.5L510.8,135.6z"/>
	<polygon class="st2" points="416,157.6 373.7,136.8 374.8,134.6 417.1,155.4 	"/>
	<polygon class="st2" points="450.7,157.3 449.1,155.5 476.9,132 478.4,133.9 	"/>
	<path class="st2" d="M476.4,133c0-0.1-1.1-9-33.5-35.8c-32.1,27.1-33.2,36-33.2,36.1l-2.4,0c0-0.9,0.9-10.1,34.8-38.6l0.8-0.7
		l0.8,0.6c34.1,28.1,35.2,37.3,35.2,38.3L476.4,133l1.2-0.1L476.4,133z"/>
	<polygon class="st2" points="435.7,157.4 407.7,134.2 409.3,132.3 437.3,155.5 	"/>
	<path class="st2" d="M595.4,156.9c-0.5-0.2-56.3-25.5-152.3-25c-96,0.4-151.5,26.1-152.1,26.4l-1-2.2c0.5-0.3,56.5-26.2,153.1-26.6
		c96.6-0.4,152.8,25,153.3,25.3L595.4,156.9z"/>
	<path class="st3" d="M442.9,80.3c9.8,0,21.4,13.4,21.4,13.4s-5.8,1.6-21.3,1.7c-15.5,0.1-21.3-1.5-21.3-1.5S433.1,80.3,442.9,80.3"
		/>
	<path class="st2" d="M435.8,93.3l-2.3-0.8c1.2-3.1,5.3-13.4,9.4-13.4c4.1,0,8.3,10.2,9.5,13.3l-2.3,0.9c-2.1-5.6-5.6-11.8-7.2-11.8
		C441.2,81.5,437.8,87.7,435.8,93.3"/>
	<line class="st4" x1="281.1" y1="198" x2="608.2" y2="195.5"/>
	<g>
		
			<rect x="543.1" y="187.8" transform="matrix(1 -4.353899e-03 4.353899e-03 1 -0.8514 2.4144)" class="st5" width="22" height="18"/>
		
			<rect x="489.8" y="187.8" transform="matrix(1 -4.353899e-03 4.353899e-03 1 -0.8519 2.1822)" class="st5" width="22" height="18"/>
		
			<rect x="436.5" y="187.8" transform="matrix(1 -4.353899e-03 4.353899e-03 1 -0.8524 1.9501)" class="st5" width="22" height="18"/>
		
			<rect x="379.6" y="187.8" transform="matrix(1 -4.353899e-03 4.353899e-03 1 -0.8529 1.7024)" class="st5" width="22" height="18"/>
		
			<rect x="326.3" y="187.8" transform="matrix(1 -4.353899e-03 4.353899e-03 1 -0.8534 1.4703)" class="st5" width="22" height="18"/>
		
			<rect x="271.2" y="187.8" transform="matrix(1 -4.353899e-03 4.353899e-03 1 -0.8539 1.2307)" class="st5" width="22" height="18"/>
		<rect x="596" y="187.2" transform="matrix(1 -4.353899e-03 4.353899e-03 1 -0.8485 2.6449)" class="st5" width="22" height="18"/>
	</g>
</g>
<g>
	<path class="st2" d="M98.2,351.9h76.3v35.5H58.2V222.6h116.2v35.5H98.2l-1.8,29.6h67.5v35.2l-65.7-0.1
		C98.2,322.8,98.2,351.9,98.2,351.9z"/>
	<path class="st2" d="M321.6,322.2c0,1,0,2,0,3v62.1h-33.3v-8.1V323h-0.3c0-0.2,0-0.5,0-0.5c0-8.6-3.3-16.7-9.5-22.8
		c-6.1-6.1-14.3-9.4-23-9.4c-8.7,0.2-16.9,3.5-23,9.6c-6.1,6.1-9.5,14.2-9.2,22.8v0.2H223v64.4h-35.8V256.3H223v17
		c10.8-12.7,20.5-15,32.2-16C291.4,254.3,321.6,277.4,321.6,322.2z"/>
	<path class="st2" d="M461.4,334.2l-96.2-0.2c1.8,5.1,3.6,7.4,7.4,11.2c6.4,6.1,14.6,9.4,23,9.4c8.7-0.2,16.9-3.5,23-9.6
		c0.2-0.2,0.8-0.8,1-1l33.3,10.4c-13.8,21-28.4,33-57.1,33.2c-36.4,0.2-66-28.9-66.3-64.9s29.2-65.4,65.5-65.7s66,28.9,66.3,64.9
		C461.4,323.5,461.6,332.4,461.4,334.2z M372.3,299.4c-2.8,3-5.4,6.6-6.9,10.6h60.1c-1.5-4.1-4.1-7.6-7.2-10.9
		c-6.1-5.8-14.3-9.1-23-9.1C386.6,290,378.4,293.3,372.3,299.4z"/>
	<path class="st2" d="M552.2,254.5v36.3c-27.7,0-44.5,22.1-44.5,38.8v57.8h-35.8v-57.8v-72.8h35.8v19.5
		C513.5,260.1,525.6,254.5,552.2,254.5z"/>
	<path class="st2" d="M618.9,425c8.7,0,22.5-4.5,28.4-10.6c6.1-6.1,7.5-18.7,7.5-27.3l-0.3-12.9c-7.9,7.9-20.2,12.9-31.7,12.9
		c-36.6,0.2-66.3-28.9-66.3-64.9c-0.3-36,28.9-65.4,65.5-65.7c11.8,0,24.6,3.6,32.5,13.4v-13.4h33.5v130.6c0,35.8-26,62.3-62.1,62.5
		 M654.6,318.2c-0.8-7.4-4.1-14-9.5-19.3c-6.1-5.8-14.3-9.1-23-9.1s-16.6,3.3-22.8,9.4c-6.1,6.3-9.5,14.2-9.5,22.8
		s3.6,16.7,9.7,22.8c6.1,6.1,14.3,9.4,23,9.4c8.7-0.2,16.9-3.5,22.8-9.6c5.1-5.1,8.5-11.7,9.2-18.8L654.6,318.2L654.6,318.2z"/>
	<path class="st2" d="M771,393.2c-11.3,27.4-38.4,44.1-67.1,43.6v-35.5c5.4,0.2,11-1,15.9-3.3c7.4-3.3,13.3-8.9,16.9-16l7.2-19.5
		l-45-106h39.4l23.8,57l21.2-57H823L771,393.2z"/>
	<polygon class="st0" points="98.9,222.4 138.9,222.4 101.9,287.7 148.7,287.7 69.7,387.4 103.6,306.3 59.8,306.3 	"/>
</g>
<path class="st2" d="M364.8,416.6v9.7h15.6v11.8h-15.6v21.5h-13.3v-54.9h6.6h6.6h21v11.8L364.8,416.6L364.8,416.6z"/>
<path class="st2" d="M428.2,441.9l-32.1-0.1c0.6,1.7,1.2,2.5,2.5,3.7c2.1,2,4.9,3.1,7.7,3.1c2.9-0.1,5.6-1.2,7.7-3.2
	c0.1-0.1,0.3-0.2,0.3-0.3l11.1,3.5c-4.6,7-9.5,11-19,11.1c-12.1,0.1-22-9.6-22.1-21.6s9.7-21.8,21.8-21.9c12.1-0.1,22,9.6,22.1,21.6
	C428.2,438.4,428.3,441.3,428.2,441.9z M398.5,430.4c-0.9,1-1.8,2.2-2.3,3.5h20c-0.5-1.4-1.4-2.5-2.4-3.6c-2-1.9-4.8-3-7.7-3
	C403.3,427.2,400.6,428.3,398.5,430.4z"/>
<path class="st2" d="M441.7,458.3c-1.9-0.7-3.6-1.8-5.5-3.5c-3.1-2.9-4.7-6.9-4.4-11.3c0-0.1,0-0.1,0-0.1v-0.8l9.5,0.2h0.8v0.7
	c0,0,0.1,2.1,0.9,3.5c1,1.7,3.2,2.5,6.4,2.5c2.6,0,4.6-0.2,5.9-0.9c1.4-0.7,1.5-1.5,1.5-2c0-2.7-5-3.6-7.9-4c-3.3-0.3-6.2-1-8.5-2
	c-2.3-0.9-4.2-2.2-5.6-3.7c-2-2.3-3.1-4.9-3.1-7.9c0-4.1,1.6-6.9,3.1-8.5c3.1-3.5,8-5.2,14.8-5.2c8.9,0,13.3,3.9,15.4,7.2
	c2.4,3.6,2.4,7.8,2.4,8.3v0.8h-10.3v-0.7c0-0.1,0-0.1,0-0.1c0-0.4-0.1-1.8-0.8-2.7c-1.2-1.6-3.6-2.5-6.7-2.5c-3.6,0-7.2,0.9-7.2,3
	c0,1,0.5,1.8,1.7,2.5c1.3,0.8,3.3,1.3,6.1,1.6c6.5,0.7,11.4,2.8,14.2,6.2c2,2.3,3,5,3,7.9c0,1.4,0,4.9-2.9,8.2c-1.5,1.7-3.5,3-6,3.8
	c-2.6,0.8-5.5,1.3-9.1,1.3C446.6,459.7,444,459.2,441.7,458.3z"/>
<path class="st2" d="M502.8,428H493v31.7h-11.9V428h-9.9v-11.8h9.9v-15.2H493v15.2h9.8V428z"/>
</svg>
